<svg width="120" height="160" xmlns="http://www.w3.org/2000/svg">
    <rect id="bg" x="0" y="0" width="120" height="160" fill="#312c29"/>

    <circle id="r1c1" cx="20" cy="20" r="8" fill="#433c35"/>
    <circle id="r1c2" cx="40" cy="20" r="8" fill="#ffd543"/>
    <circle id="r1c3" cx="60" cy="20" r="8" fill="#ffd543"/>
    <circle id="r1c4" cx="80" cy="20" r="8" fill="#ffd543"/>
    <circle id="r1c5" cx="100" cy="20" r="8" fill="#433c35"/>

    <circle id="r2c1" cx="20" cy="40" r="8" fill="#ffd543"/>
    <circle id="r2c2" cx="40" cy="40" r="8" fill="#433c35"/>
    <circle id="r2c3" cx="60" cy="40" r="8" fill="#433c35"/>
    <circle id="r2c4" cx="80" cy="40" r="8" fill="#433c35"/>
    <circle id="r2c5" cx="100" cy="40" r="8" fill="#ffd543"/>

    <circle id="r3c1" cx="20" cy="60" r="8" fill="#ffd543"/>
    <circle id="r3c2" cx="40" cy="60" r="8" fill="#433c35"/>
    <circle id="r3c3" cx="60" cy="60" r="8" fill="#433c35"/>
    <circle id="r3c4" cx="80" cy="60" r="8" fill="#ffd543"/>
    <circle id="r3c5" cx="100" cy="60" r="8" fill="#ffd543"/>

    <circle id="r4c1" cx="20" cy="80" r="8" fill="#ffd543"/>
    <circle id="r4c2" cx="40" cy="80" r="8" fill="#433c35"/>
    <circle id="r4c3" cx="60" cy="80" r="8" fill="#ffd543"/>
    <circle id="r4c4" cx="80" cy="80" r="8" fill="#433c35"/>
    <circle id="r4c5" cx="100" cy="80" r="8" fill="#ffd543"/>

    <circle id="r5c1" cx="20" cy="100" r="8" fill="#ffd543"/>
    <circle id="r5c2" cx="40" cy="100" r="8" fill="#ffd543"/>
    <circle id="r5c3" cx="60" cy="100" r="8" fill="#433c35"/>
    <circle id="r5c4" cx="80" cy="100" r="8" fill="#433c35"/>
    <circle id="r5c5" cx="100" cy="100" r="8" fill="#ffd543"/>

    <circle id="r6c1" cx="20" cy="120" r="8" fill="#ffd543"/>
    <circle id="r6c2" cx="40" cy="120" r="8" fill="#433c35"/>
    <circle id="r6c3" cx="60" cy="120" r="8" fill="#433c35"/>
    <circle id="r6c4" cx="80" cy="120" r="8" fill="#433c35"/>
    <circle id="r6c5" cx="100" cy="120" r="8" fill="#ffd543"/>

    <circle id="r7c1" cx="20" cy="140" r="8" fill="#433c35"/>
    <circle id="r7c2" cx="40" cy="140" r="8" fill="#ffd543"/>
    <circle id="r7c3" cx="60" cy="140" r="8" fill="#ffd543"/>
    <circle id="r7c4" cx="80" cy="140" r="8" fill="#ffd543"/>
    <circle id="r7c5" cx="100" cy="140" r="8" fill="#433c35"/>
</svg>
