<?xml version="1.0" encoding="UTF-8"?>
<svg viewBox="0 0 732.96021 560.48987" xmlns="http://www.w3.org/2000/svg" xmlns:xlink="http://www.w3.org/1999/xlink">
 <defs>
  <filter id="j">
   <feGaussianBlur stdDeviation="7.85277"/>
  </filter>
  <filter id="f" x="-.08345" y="-.51397" width="1.1669" height="2.0279">
   <feGaussianBlur stdDeviation="19.68109"/>
  </filter>
  <filter id="d" x="-.16692" y="-.17727" width="1.3338" height="1.3545">
   <feGaussianBlur stdDeviation="1.28652"/>
  </filter>
  <filter id="c" x="-.14606" y="-.15511" width="1.2921" height="1.3102">
   <feGaussianBlur stdDeviation="1.1257"/>
  </filter>
  <linearGradient id="e">
   <stop stop-color="#ffc800" offset="0"/>
   <stop stop-color="#c57101" offset="1"/>
  </linearGradient>
  <linearGradient id="h" x1="371.54" x2="376.15" y1="481.62" y2="577.07" gradientUnits="userSpaceOnUse">
   <stop stop-color="#570000" offset="0"/>
   <stop stop-color="#f00" offset="1"/>
  </linearGradient>
  <linearGradient id="a" x1="157.43" x2="172.06" y1="652.83" y2="671.96" gradientUnits="userSpaceOnUse">
   <stop stop-color="#fff" offset="0"/>
   <stop stop-color="#fff" stop-opacity="0" offset="1"/>
  </linearGradient>
  <linearGradient id="i" x1="337.53" x2="347.14" y1="467.83" y2="507.34" gradientUnits="userSpaceOnUse" xlink:href="#e"/>
  <linearGradient id="b" x1="166.92" x2="165.94" y1="649.41" y2="666.74" gradientUnits="userSpaceOnUse" xlink:href="#e"/>
  <radialGradient id="g" cx="390" cy="515.22" r="285.71" gradientTransform="matrix(1 0 0 .135 0 445.66)" gradientUnits="userSpaceOnUse">
   <stop stop-color="#570000" offset="0"/>
   <stop stop-color="#ce0000" offset="1"/>
  </radialGradient>
 </defs>
 <g transform="translate(-60.397 -243.8)">
  <g transform="translate(-67.143 -285.71)">
   <path transform="matrix(.56144 -.058782 -.20582 1.5457 287.65 -181.99)" d="m675.71 515.22a285.71 38.571 0 1 1 -571.43 0 285.71 38.571 0 1 1 571.43 0z" fill="url(#i)" opacity=".8488"/>
   <path transform="matrix(.99016 -.15255 .22032 1.6971 -89.104 -190.79)" d="m675.71 515.22a285.71 38.571 0 1 1 -571.43 0 285.71 38.571 0 1 1 571.43 0z" fill="url(#g)"/>
   <path transform="matrix(.99016 -.14978 .22032 1.6662 -89.104 -170.56)" d="m675.71 515.22a285.71 38.571 0 1 1 -571.43 0 285.71 38.571 0 1 1 571.43 0z" fill="#570000" opacity=".74227"/>
   <path transform="matrix(.99004 -.14082 .22166 1.5584 -87.744 -115.49)" d="m675.71 515.22a285.71 38.571 0 1 1 -571.43 0 285.71 38.571 0 1 1 571.43 0z" fill="url(#h)"/>
   <path transform="matrix(.47269 -.067233 .10583 .74405 179.06 292.82)" d="m675.71 515.22a285.71 38.571 0 1 1 -571.43 0 285.71 38.571 0 1 1 571.43 0z" fill="#b3b3b3" stroke="#000" stroke-width="5.2894"/>
   <path transform="matrix(.38872 -.055289 .087028 .61187 224.35 360.68)" d="m675.71 515.22a285.71 38.571 0 1 1 -571.43 0 285.71 38.571 0 1 1 571.43 0z" fill="#fff" stroke="#000" stroke-width="5.2894"/>
   <path transform="matrix(.38872 -.055289 .087028 .61187 223.21 359.25)" d="m675.71 515.22a285.71 38.571 0 1 1 -571.43 0 285.71 38.571 0 1 1 571.43 0z" fill="#fff" filter="url(#f)"/>
   <path transform="matrix(.38872 -.055289 .087028 .61187 221.78 359.82)" d="m675.71 515.22a285.71 38.571 0 1 1 -571.43 0 285.71 38.571 0 1 1 571.43 0z" fill="#fff" filter="url(#f)"/>
   <path transform="matrix(.99466 -.10324 .055924 .53877 188.37 247.49)" d="m175.71 658.08a9.2857 8.5714 0 1 1 -18.571 0 9.2857 8.5714 0 1 1 18.571 0z" filter="url(#d)"/>
   <path transform="matrix(.99466 -.10324 .055924 .53877 188.37 248.21)" d="m175.71 658.08a9.2857 8.5714 0 1 1 -18.571 0 9.2857 8.5714 0 1 1 18.571 0z" fill="url(#b)"/>
   <path transform="matrix(.99466 -.10324 .055924 .53877 188.37 248.21)" d="m175.71 658.08a9.2857 8.5714 0 1 1 -18.571 0 9.2857 8.5714 0 1 1 18.571 0z" fill="url(#a)" filter="url(#c)"/>
   <path transform="matrix(.78464 -.08145 .04412 .42501 327 311.73)" d="m175.71 658.08a9.2857 8.5714 0 1 1 -18.571 0 9.2857 8.5714 0 1 1 18.571 0z" filter="url(#d)"/>
   <path transform="matrix(.78464 -.08145 .04412 .42501 327 312.29)" d="m175.71 658.08a9.2857 8.5714 0 1 1 -18.571 0 9.2857 8.5714 0 1 1 18.571 0z" fill="url(#b)"/>
   <path transform="matrix(.78464 -.08145 .04412 .42501 327 312.29)" d="m175.71 658.08a9.2857 8.5714 0 1 1 -18.571 0 9.2857 8.5714 0 1 1 18.571 0z" fill="url(#a)" filter="url(#c)"/>
   <path transform="matrix(.72579 -.07534 .04081 .39314 420.57 335.41)" d="m175.71 658.08a9.2857 8.5714 0 1 1 -18.571 0 9.2857 8.5714 0 1 1 18.571 0z" filter="url(#d)"/>
   <path transform="matrix(.72579 -.07534 .04081 .39314 420.57 335.93)" d="m175.71 658.08a9.2857 8.5714 0 1 1 -18.571 0 9.2857 8.5714 0 1 1 18.571 0z" fill="url(#b)"/>
   <path transform="matrix(.72579 -.07534 .04081 .39314 420.57 335.93)" d="m175.71 658.08a9.2857 8.5714 0 1 1 -18.571 0 9.2857 8.5714 0 1 1 18.571 0z" fill="url(#a)" filter="url(#c)"/>
   <path transform="matrix(.64898 -.06736 .03649 .35153 495.48 381.1)" d="m175.71 658.08a9.2857 8.5714 0 1 1 -18.571 0 9.2857 8.5714 0 1 1 18.571 0z" filter="url(#d)"/>
   <path transform="matrix(.64898 -.06736 .03649 .35153 495.48 381.57)" d="m175.71 658.08a9.2857 8.5714 0 1 1 -18.571 0 9.2857 8.5714 0 1 1 18.571 0z" fill="url(#b)"/>
   <path transform="matrix(.64898 -.06736 .03649 .35153 495.48 381.57)" d="m175.71 658.08a9.2857 8.5714 0 1 1 -18.571 0 9.2857 8.5714 0 1 1 18.571 0z" fill="url(#a)" filter="url(#c)"/>
   <path transform="matrix(.50463 -.05238 .02837 .27334 503.5 467.38)" d="m175.71 658.08a9.2857 8.5714 0 1 1 -18.571 0 9.2857 8.5714 0 1 1 18.571 0z" filter="url(#d)"/>
   <path transform="matrix(.50463 -.05238 .02837 .27334 503.5 467.74)" d="m175.71 658.08a9.2857 8.5714 0 1 1 -18.571 0 9.2857 8.5714 0 1 1 18.571 0z" fill="url(#b)"/>
   <path transform="matrix(.50463 -.05238 .02837 .27334 503.5 467.74)" d="m175.71 658.08a9.2857 8.5714 0 1 1 -18.571 0 9.2857 8.5714 0 1 1 18.571 0z" fill="url(#a)" filter="url(#c)"/>
   <path transform="matrix(.53375 -.0554 .03001 .28911 417.85 481.64)" d="m175.71 658.08a9.2857 8.5714 0 1 1 -18.571 0 9.2857 8.5714 0 1 1 18.571 0z" filter="url(#d)"/>
   <path transform="matrix(.53375 -.0554 .03001 .28911 417.85 482.02)" d="m175.71 658.08a9.2857 8.5714 0 1 1 -18.571 0 9.2857 8.5714 0 1 1 18.571 0z" fill="url(#b)"/>
   <path transform="matrix(.53375 -.0554 .03001 .28911 417.85 482.02)" d="m175.71 658.08a9.2857 8.5714 0 1 1 -18.571 0 9.2857 8.5714 0 1 1 18.571 0z" fill="url(#a)" filter="url(#c)"/>
   <path transform="matrix(.49534 -.05142 .02785 .26831 171.31 526.48)" d="m175.71 658.08a9.2857 8.5714 0 1 1 -18.571 0 9.2857 8.5714 0 1 1 18.571 0z" filter="url(#d)"/>
   <path transform="matrix(.49534 -.05142 .02785 .26831 171.31 526.84)" d="m175.71 658.08a9.2857 8.5714 0 1 1 -18.571 0 9.2857 8.5714 0 1 1 18.571 0z" fill="url(#b)"/>
   <path transform="matrix(.49534 -.05142 .02785 .26831 171.31 526.84)" d="m175.71 658.08a9.2857 8.5714 0 1 1 -18.571 0 9.2857 8.5714 0 1 1 18.571 0z" fill="url(#a)" filter="url(#c)"/>
   <path transform="matrix(.64463 -.06691 .03624 .34918 68.322 466.55)" d="m175.71 658.08a9.2857 8.5714 0 1 1 -18.571 0 9.2857 8.5714 0 1 1 18.571 0z" filter="url(#d)"/>
   <path transform="matrix(.64463 -.06691 .03624 .34918 68.322 467.02)" d="m175.71 658.08a9.2857 8.5714 0 1 1 -18.571 0 9.2857 8.5714 0 1 1 18.571 0z" fill="url(#b)"/>
   <path transform="matrix(.64463 -.06691 .03624 .34918 68.322 467.02)" d="m175.71 658.08a9.2857 8.5714 0 1 1 -18.571 0 9.2857 8.5714 0 1 1 18.571 0z" fill="url(#a)" filter="url(#c)"/>
   <path transform="matrix(.95625 -.09926 .05376 .51797 -12.171 322.34)" d="m175.71 658.08a9.2857 8.5714 0 1 1 -18.571 0 9.2857 8.5714 0 1 1 18.571 0z" filter="url(#d)"/>
   <path transform="matrix(.95625 -.09926 .05376 .51797 -12.171 323.02)" d="m175.71 658.08a9.2857 8.5714 0 1 1 -18.571 0 9.2857 8.5714 0 1 1 18.571 0z" fill="url(#b)"/>
   <path transform="matrix(.95625 -.09926 .05376 .51797 -12.171 323.02)" d="m175.71 658.08a9.2857 8.5714 0 1 1 -18.571 0 9.2857 8.5714 0 1 1 18.571 0z" fill="url(#a)" filter="url(#c)"/>
   <path transform="matrix(.80261 -.08331 .04513 .43475 117.65 333.72)" d="m175.71 658.08a9.2857 8.5714 0 1 1 -18.571 0 9.2857 8.5714 0 1 1 18.571 0z" filter="url(#d)"/>
   <path transform="matrix(.80261 -.08331 .04513 .43475 117.65 334.3)" d="m175.71 658.08a9.2857 8.5714 0 1 1 -18.571 0 9.2857 8.5714 0 1 1 18.571 0z" fill="url(#b)"/>
   <path transform="matrix(.80261 -.08331 .04513 .43475 117.65 334.3)" d="m175.71 658.08a9.2857 8.5714 0 1 1 -18.571 0 9.2857 8.5714 0 1 1 18.571 0z" fill="url(#a)" filter="url(#c)"/>
   <path transform="matrix(.30329 -.03148 .01705 .16428 354.59 588.71)" d="m175.71 658.08a9.2857 8.5714 0 1 1 -18.571 0 9.2857 8.5714 0 1 1 18.571 0z" filter="url(#d)"/>
   <path transform="matrix(.30329 -.03148 .01705 .16428 354.59 588.93)" d="m175.71 658.08a9.2857 8.5714 0 1 1 -18.571 0 9.2857 8.5714 0 1 1 18.571 0z" fill="url(#b)"/>
   <path transform="matrix(.30329 -.03148 .01705 .16428 354.59 588.93)" d="m175.71 658.08a9.2857 8.5714 0 1 1 -18.571 0 9.2857 8.5714 0 1 1 18.571 0z" fill="url(#a)" filter="url(#c)"/>
  </g>
  <path d="m462.86 346.65 330 457.14-691.43-2.8571 142.86-422.86c63.787-35.792 139.55-48.97 218.57-31.429z" fill="#fff" fill-rule="evenodd" filter="url(#j)" opacity=".51203" stroke="#000"/>
 </g>
</svg>
